<mxfile host="Electron" modified="2024-12-18T13:12:14.943Z" agent="Mozilla/5.0 (Windows NT 10.0; Win64; x64) AppleWebKit/537.36 (KHTML, like Gecko) draw.io/24.4.13 Chrome/124.0.6367.207 Electron/30.0.6 Safari/537.36" etag="3gBV0xwBz1qPX7vDiJRE" version="24.4.13" type="device">
  <diagram name="Страница — 1" id="p43cIoQ6q70ULzPos9Y_">
    <mxGraphModel dx="1594" dy="1345" grid="0" gridSize="10" guides="1" tooltips="1" connect="1" arrows="1" fold="1" page="0" pageScale="1" pageWidth="827" pageHeight="1169" math="0" shadow="0">
      <root>
        <mxCell id="0" />
        <mxCell id="1" parent="0" />
        <mxCell id="sH4b_n3Dl-JkkLHRPlZF-51" style="edgeStyle=orthogonalEdgeStyle;rounded=0;orthogonalLoop=1;jettySize=auto;html=1;exitX=0.5;exitY=1;exitDx=0;exitDy=0;entryX=0.5;entryY=0;entryDx=0;entryDy=0;" edge="1" parent="1" source="sH4b_n3Dl-JkkLHRPlZF-1" target="sH4b_n3Dl-JkkLHRPlZF-2">
          <mxGeometry relative="1" as="geometry" />
        </mxCell>
        <mxCell id="sH4b_n3Dl-JkkLHRPlZF-1" value="Начало" style="rounded=1;whiteSpace=wrap;html=1;" vertex="1" parent="1">
          <mxGeometry x="357.5" y="-100" width="106" height="40" as="geometry" />
        </mxCell>
        <mxCell id="sH4b_n3Dl-JkkLHRPlZF-67" style="edgeStyle=orthogonalEdgeStyle;rounded=0;orthogonalLoop=1;jettySize=auto;html=1;exitX=0.5;exitY=1;exitDx=0;exitDy=0;entryX=0.5;entryY=0;entryDx=0;entryDy=0;" edge="1" parent="1" source="sH4b_n3Dl-JkkLHRPlZF-2" target="sH4b_n3Dl-JkkLHRPlZF-66">
          <mxGeometry relative="1" as="geometry" />
        </mxCell>
        <mxCell id="sH4b_n3Dl-JkkLHRPlZF-2" value="Запуск приложения" style="rounded=0;whiteSpace=wrap;html=1;" vertex="1" parent="1">
          <mxGeometry x="350.5" width="120" height="60" as="geometry" />
        </mxCell>
        <mxCell id="sH4b_n3Dl-JkkLHRPlZF-17" style="edgeStyle=orthogonalEdgeStyle;rounded=0;orthogonalLoop=1;jettySize=auto;html=1;exitX=0.5;exitY=1;exitDx=0;exitDy=0;entryX=0.5;entryY=0;entryDx=0;entryDy=0;" edge="1" parent="1" source="sH4b_n3Dl-JkkLHRPlZF-3" target="sH4b_n3Dl-JkkLHRPlZF-5">
          <mxGeometry relative="1" as="geometry">
            <Array as="points">
              <mxPoint x="291" y="280" />
            </Array>
          </mxGeometry>
        </mxCell>
        <mxCell id="sH4b_n3Dl-JkkLHRPlZF-3" value="Выбор Таблицы" style="rhombus;whiteSpace=wrap;html=1;" vertex="1" parent="1">
          <mxGeometry x="351" y="170" width="133" height="80" as="geometry" />
        </mxCell>
        <mxCell id="sH4b_n3Dl-JkkLHRPlZF-44" style="edgeStyle=orthogonalEdgeStyle;rounded=0;orthogonalLoop=1;jettySize=auto;html=1;exitX=0;exitY=0.5;exitDx=0;exitDy=0;entryX=0;entryY=0.5;entryDx=0;entryDy=0;" edge="1" parent="1" source="sH4b_n3Dl-JkkLHRPlZF-4" target="sH4b_n3Dl-JkkLHRPlZF-27">
          <mxGeometry relative="1" as="geometry" />
        </mxCell>
        <mxCell id="sH4b_n3Dl-JkkLHRPlZF-4" value="Выбор таблицы Пациенты&amp;nbsp;" style="rounded=0;whiteSpace=wrap;html=1;" vertex="1" parent="1">
          <mxGeometry x="80" y="320" width="120" height="60" as="geometry" />
        </mxCell>
        <mxCell id="sH4b_n3Dl-JkkLHRPlZF-45" style="edgeStyle=orthogonalEdgeStyle;rounded=0;orthogonalLoop=1;jettySize=auto;html=1;exitX=0;exitY=0.5;exitDx=0;exitDy=0;entryX=0;entryY=0.5;entryDx=0;entryDy=0;" edge="1" parent="1" source="sH4b_n3Dl-JkkLHRPlZF-5" target="sH4b_n3Dl-JkkLHRPlZF-27">
          <mxGeometry relative="1" as="geometry">
            <Array as="points">
              <mxPoint x="220" y="350" />
              <mxPoint x="220" y="540" />
            </Array>
          </mxGeometry>
        </mxCell>
        <mxCell id="sH4b_n3Dl-JkkLHRPlZF-5" value="выбор таблицы Лабораторных анализов" style="rounded=0;whiteSpace=wrap;html=1;" vertex="1" parent="1">
          <mxGeometry x="230.5" y="320" width="120" height="60" as="geometry" />
        </mxCell>
        <mxCell id="sH4b_n3Dl-JkkLHRPlZF-6" value="выбор таблицы Медицинской карты" style="rounded=0;whiteSpace=wrap;html=1;" vertex="1" parent="1">
          <mxGeometry x="380" y="320" width="120" height="60" as="geometry" />
        </mxCell>
        <mxCell id="sH4b_n3Dl-JkkLHRPlZF-47" style="edgeStyle=orthogonalEdgeStyle;rounded=0;orthogonalLoop=1;jettySize=auto;html=1;exitX=1;exitY=0.5;exitDx=0;exitDy=0;entryX=1;entryY=0.5;entryDx=0;entryDy=0;" edge="1" parent="1" source="sH4b_n3Dl-JkkLHRPlZF-9" target="sH4b_n3Dl-JkkLHRPlZF-27">
          <mxGeometry relative="1" as="geometry" />
        </mxCell>
        <mxCell id="sH4b_n3Dl-JkkLHRPlZF-9" value="Выбор таблицы история болезни" style="rounded=0;whiteSpace=wrap;html=1;" vertex="1" parent="1">
          <mxGeometry x="530" y="320" width="120" height="60" as="geometry" />
        </mxCell>
        <mxCell id="sH4b_n3Dl-JkkLHRPlZF-48" style="edgeStyle=orthogonalEdgeStyle;rounded=0;orthogonalLoop=1;jettySize=auto;html=1;exitX=1;exitY=0.5;exitDx=0;exitDy=0;entryX=1;entryY=0.5;entryDx=0;entryDy=0;" edge="1" parent="1" source="sH4b_n3Dl-JkkLHRPlZF-10" target="sH4b_n3Dl-JkkLHRPlZF-27">
          <mxGeometry relative="1" as="geometry" />
        </mxCell>
        <mxCell id="sH4b_n3Dl-JkkLHRPlZF-10" value="Выбор таблицы Запись на прием" style="rounded=0;whiteSpace=wrap;html=1;" vertex="1" parent="1">
          <mxGeometry x="680" y="320" width="120" height="60" as="geometry" />
        </mxCell>
        <mxCell id="sH4b_n3Dl-JkkLHRPlZF-39" style="edgeStyle=orthogonalEdgeStyle;rounded=0;orthogonalLoop=1;jettySize=auto;html=1;exitX=0.5;exitY=1;exitDx=0;exitDy=0;entryX=0;entryY=0.5;entryDx=0;entryDy=0;" edge="1" parent="1" source="sH4b_n3Dl-JkkLHRPlZF-11" target="sH4b_n3Dl-JkkLHRPlZF-27">
          <mxGeometry relative="1" as="geometry" />
        </mxCell>
        <mxCell id="sH4b_n3Dl-JkkLHRPlZF-11" value="Выбор таблицы Врачи" style="rounded=0;whiteSpace=wrap;html=1;" vertex="1" parent="1">
          <mxGeometry x="80" y="400" width="120" height="60" as="geometry" />
        </mxCell>
        <mxCell id="sH4b_n3Dl-JkkLHRPlZF-40" style="edgeStyle=orthogonalEdgeStyle;rounded=0;orthogonalLoop=1;jettySize=auto;html=1;exitX=0.5;exitY=1;exitDx=0;exitDy=0;entryX=0;entryY=0.5;entryDx=0;entryDy=0;" edge="1" parent="1" source="sH4b_n3Dl-JkkLHRPlZF-12" target="sH4b_n3Dl-JkkLHRPlZF-27">
          <mxGeometry relative="1" as="geometry">
            <mxPoint x="320" y="530" as="targetPoint" />
          </mxGeometry>
        </mxCell>
        <mxCell id="sH4b_n3Dl-JkkLHRPlZF-12" value="Выбор таблицы Автопарк" style="rounded=0;whiteSpace=wrap;html=1;" vertex="1" parent="1">
          <mxGeometry x="231" y="400" width="120" height="60" as="geometry" />
        </mxCell>
        <mxCell id="sH4b_n3Dl-JkkLHRPlZF-41" style="edgeStyle=orthogonalEdgeStyle;rounded=0;orthogonalLoop=1;jettySize=auto;html=1;exitX=0.5;exitY=1;exitDx=0;exitDy=0;entryX=0.5;entryY=0;entryDx=0;entryDy=0;" edge="1" parent="1" source="sH4b_n3Dl-JkkLHRPlZF-13" target="sH4b_n3Dl-JkkLHRPlZF-27">
          <mxGeometry relative="1" as="geometry" />
        </mxCell>
        <mxCell id="sH4b_n3Dl-JkkLHRPlZF-13" value="Выбор таблицы Препараты&amp;nbsp;" style="rounded=0;whiteSpace=wrap;html=1;" vertex="1" parent="1">
          <mxGeometry x="380" y="400" width="120" height="60" as="geometry" />
        </mxCell>
        <mxCell id="sH4b_n3Dl-JkkLHRPlZF-42" style="edgeStyle=orthogonalEdgeStyle;rounded=0;orthogonalLoop=1;jettySize=auto;html=1;exitX=0.5;exitY=1;exitDx=0;exitDy=0;entryX=1;entryY=0.5;entryDx=0;entryDy=0;" edge="1" parent="1" source="sH4b_n3Dl-JkkLHRPlZF-14" target="sH4b_n3Dl-JkkLHRPlZF-27">
          <mxGeometry relative="1" as="geometry" />
        </mxCell>
        <mxCell id="sH4b_n3Dl-JkkLHRPlZF-14" value="Выбор таблицы Рецепты&amp;nbsp;" style="rounded=0;whiteSpace=wrap;html=1;" vertex="1" parent="1">
          <mxGeometry x="530" y="400" width="120" height="60" as="geometry" />
        </mxCell>
        <mxCell id="sH4b_n3Dl-JkkLHRPlZF-43" style="edgeStyle=orthogonalEdgeStyle;rounded=0;orthogonalLoop=1;jettySize=auto;html=1;exitX=0.5;exitY=1;exitDx=0;exitDy=0;" edge="1" parent="1" source="sH4b_n3Dl-JkkLHRPlZF-15">
          <mxGeometry relative="1" as="geometry">
            <mxPoint x="500" y="540" as="targetPoint" />
            <Array as="points">
              <mxPoint x="740" y="540" />
            </Array>
          </mxGeometry>
        </mxCell>
        <mxCell id="sH4b_n3Dl-JkkLHRPlZF-15" value="Выбор таблицы Аптеки" style="rounded=0;whiteSpace=wrap;html=1;" vertex="1" parent="1">
          <mxGeometry x="680" y="400" width="120" height="60" as="geometry" />
        </mxCell>
        <mxCell id="sH4b_n3Dl-JkkLHRPlZF-16" value="" style="endArrow=classic;html=1;rounded=0;exitX=0.5;exitY=1;exitDx=0;exitDy=0;entryX=0.5;entryY=0;entryDx=0;entryDy=0;" edge="1" parent="1" source="sH4b_n3Dl-JkkLHRPlZF-3" target="sH4b_n3Dl-JkkLHRPlZF-4">
          <mxGeometry width="50" height="50" relative="1" as="geometry">
            <mxPoint x="390" y="350" as="sourcePoint" />
            <mxPoint x="440" y="300" as="targetPoint" />
            <Array as="points">
              <mxPoint x="418" y="280" />
              <mxPoint x="140" y="280" />
            </Array>
          </mxGeometry>
        </mxCell>
        <mxCell id="sH4b_n3Dl-JkkLHRPlZF-18" value="" style="endArrow=classic;html=1;rounded=0;entryX=0.5;entryY=0;entryDx=0;entryDy=0;" edge="1" parent="1" target="sH4b_n3Dl-JkkLHRPlZF-10">
          <mxGeometry width="50" height="50" relative="1" as="geometry">
            <mxPoint x="420" y="280" as="sourcePoint" />
            <mxPoint x="150" y="330" as="targetPoint" />
            <Array as="points">
              <mxPoint x="420" y="280" />
              <mxPoint x="740" y="280" />
            </Array>
          </mxGeometry>
        </mxCell>
        <mxCell id="sH4b_n3Dl-JkkLHRPlZF-19" style="edgeStyle=orthogonalEdgeStyle;rounded=0;orthogonalLoop=1;jettySize=auto;html=1;exitX=0.5;exitY=1;exitDx=0;exitDy=0;entryX=0.5;entryY=0;entryDx=0;entryDy=0;" edge="1" parent="1" source="sH4b_n3Dl-JkkLHRPlZF-3" target="sH4b_n3Dl-JkkLHRPlZF-9">
          <mxGeometry relative="1" as="geometry">
            <mxPoint x="427" y="290" as="sourcePoint" />
            <mxPoint x="301" y="330" as="targetPoint" />
            <Array as="points">
              <mxPoint x="590" y="280" />
            </Array>
          </mxGeometry>
        </mxCell>
        <mxCell id="sH4b_n3Dl-JkkLHRPlZF-20" style="edgeStyle=orthogonalEdgeStyle;rounded=0;orthogonalLoop=1;jettySize=auto;html=1;exitX=0.5;exitY=1;exitDx=0;exitDy=0;entryX=0.453;entryY=0.003;entryDx=0;entryDy=0;entryPerimeter=0;" edge="1" parent="1" source="sH4b_n3Dl-JkkLHRPlZF-3" target="sH4b_n3Dl-JkkLHRPlZF-6">
          <mxGeometry relative="1" as="geometry">
            <Array as="points">
              <mxPoint x="418" y="280" />
              <mxPoint x="434" y="280" />
            </Array>
          </mxGeometry>
        </mxCell>
        <mxCell id="sH4b_n3Dl-JkkLHRPlZF-21" value="" style="endArrow=classic;html=1;rounded=0;entryX=0;entryY=0.5;entryDx=0;entryDy=0;" edge="1" parent="1" target="sH4b_n3Dl-JkkLHRPlZF-11">
          <mxGeometry width="50" height="50" relative="1" as="geometry">
            <mxPoint x="140" y="280" as="sourcePoint" />
            <mxPoint x="430" y="290" as="targetPoint" />
            <Array as="points">
              <mxPoint x="40" y="280" />
              <mxPoint x="40" y="430" />
            </Array>
          </mxGeometry>
        </mxCell>
        <mxCell id="sH4b_n3Dl-JkkLHRPlZF-22" value="" style="endArrow=classic;html=1;rounded=0;entryX=0;entryY=0.5;entryDx=0;entryDy=0;" edge="1" parent="1" target="sH4b_n3Dl-JkkLHRPlZF-12">
          <mxGeometry width="50" height="50" relative="1" as="geometry">
            <mxPoint x="290" y="280" as="sourcePoint" />
            <mxPoint x="260" y="250" as="targetPoint" />
            <Array as="points">
              <mxPoint x="210" y="280" />
              <mxPoint x="210" y="430" />
            </Array>
          </mxGeometry>
        </mxCell>
        <mxCell id="sH4b_n3Dl-JkkLHRPlZF-23" value="" style="endArrow=classic;html=1;rounded=0;entryX=0;entryY=0.5;entryDx=0;entryDy=0;" edge="1" parent="1" target="sH4b_n3Dl-JkkLHRPlZF-13">
          <mxGeometry width="50" height="50" relative="1" as="geometry">
            <mxPoint x="370" y="280" as="sourcePoint" />
            <mxPoint x="430" y="480" as="targetPoint" />
            <Array as="points">
              <mxPoint x="370" y="430" />
            </Array>
          </mxGeometry>
        </mxCell>
        <mxCell id="sH4b_n3Dl-JkkLHRPlZF-24" value="" style="endArrow=classic;html=1;rounded=0;entryX=0;entryY=0.5;entryDx=0;entryDy=0;" edge="1" parent="1" target="sH4b_n3Dl-JkkLHRPlZF-14">
          <mxGeometry width="50" height="50" relative="1" as="geometry">
            <mxPoint x="510" y="280" as="sourcePoint" />
            <mxPoint x="490" y="290" as="targetPoint" />
            <Array as="points">
              <mxPoint x="510" y="430" />
            </Array>
          </mxGeometry>
        </mxCell>
        <mxCell id="sH4b_n3Dl-JkkLHRPlZF-26" value="" style="endArrow=classic;html=1;rounded=0;entryX=1;entryY=0.5;entryDx=0;entryDy=0;" edge="1" parent="1" target="sH4b_n3Dl-JkkLHRPlZF-15">
          <mxGeometry width="50" height="50" relative="1" as="geometry">
            <mxPoint x="660" y="280" as="sourcePoint" />
            <mxPoint x="680" y="430" as="targetPoint" />
            <Array as="points">
              <mxPoint x="840" y="280" />
              <mxPoint x="840" y="430" />
            </Array>
          </mxGeometry>
        </mxCell>
        <mxCell id="sH4b_n3Dl-JkkLHRPlZF-27" value="Добавление/Изменение/Удаление/Просомтр" style="rounded=0;whiteSpace=wrap;html=1;" vertex="1" parent="1">
          <mxGeometry x="334" y="510" width="166" height="60" as="geometry" />
        </mxCell>
        <mxCell id="sH4b_n3Dl-JkkLHRPlZF-46" style="edgeStyle=orthogonalEdgeStyle;rounded=0;orthogonalLoop=1;jettySize=auto;html=1;exitX=0;exitY=0.5;exitDx=0;exitDy=0;entryX=0.155;entryY=-0.009;entryDx=0;entryDy=0;entryPerimeter=0;" edge="1" parent="1" source="sH4b_n3Dl-JkkLHRPlZF-6" target="sH4b_n3Dl-JkkLHRPlZF-27">
          <mxGeometry relative="1" as="geometry" />
        </mxCell>
        <mxCell id="sH4b_n3Dl-JkkLHRPlZF-54" style="edgeStyle=orthogonalEdgeStyle;rounded=0;orthogonalLoop=1;jettySize=auto;html=1;exitX=0.5;exitY=1;exitDx=0;exitDy=0;entryX=0.5;entryY=0;entryDx=0;entryDy=0;" edge="1" parent="1" source="sH4b_n3Dl-JkkLHRPlZF-49" target="sH4b_n3Dl-JkkLHRPlZF-53">
          <mxGeometry relative="1" as="geometry" />
        </mxCell>
        <mxCell id="sH4b_n3Dl-JkkLHRPlZF-49" value="Сохранение&amp;nbsp;" style="rounded=0;whiteSpace=wrap;html=1;" vertex="1" parent="1">
          <mxGeometry x="357" y="620" width="120" height="60" as="geometry" />
        </mxCell>
        <mxCell id="sH4b_n3Dl-JkkLHRPlZF-50" value="" style="endArrow=classic;html=1;rounded=0;exitX=0.5;exitY=1;exitDx=0;exitDy=0;entryX=0.5;entryY=0;entryDx=0;entryDy=0;" edge="1" parent="1" source="sH4b_n3Dl-JkkLHRPlZF-27" target="sH4b_n3Dl-JkkLHRPlZF-49">
          <mxGeometry width="50" height="50" relative="1" as="geometry">
            <mxPoint x="440" y="660" as="sourcePoint" />
            <mxPoint x="490" y="610" as="targetPoint" />
          </mxGeometry>
        </mxCell>
        <mxCell id="sH4b_n3Dl-JkkLHRPlZF-60" style="edgeStyle=orthogonalEdgeStyle;rounded=0;orthogonalLoop=1;jettySize=auto;html=1;exitX=0.5;exitY=1;exitDx=0;exitDy=0;entryX=0.5;entryY=0;entryDx=0;entryDy=0;" edge="1" parent="1" source="sH4b_n3Dl-JkkLHRPlZF-53" target="sH4b_n3Dl-JkkLHRPlZF-56">
          <mxGeometry relative="1" as="geometry" />
        </mxCell>
        <mxCell id="sH4b_n3Dl-JkkLHRPlZF-69" style="edgeStyle=orthogonalEdgeStyle;rounded=0;orthogonalLoop=1;jettySize=auto;html=1;exitX=0;exitY=0.5;exitDx=0;exitDy=0;entryX=0;entryY=0.5;entryDx=0;entryDy=0;" edge="1" parent="1" source="sH4b_n3Dl-JkkLHRPlZF-53" target="sH4b_n3Dl-JkkLHRPlZF-66">
          <mxGeometry relative="1" as="geometry">
            <Array as="points">
              <mxPoint x="20" y="750" />
              <mxPoint x="20" y="120" />
            </Array>
          </mxGeometry>
        </mxCell>
        <mxCell id="sH4b_n3Dl-JkkLHRPlZF-53" value="Продолжить работу?" style="rhombus;whiteSpace=wrap;html=1;" vertex="1" parent="1">
          <mxGeometry x="360.5" y="710" width="113" height="80" as="geometry" />
        </mxCell>
        <mxCell id="sH4b_n3Dl-JkkLHRPlZF-58" style="edgeStyle=orthogonalEdgeStyle;rounded=0;orthogonalLoop=1;jettySize=auto;html=1;exitX=0.5;exitY=1;exitDx=0;exitDy=0;" edge="1" parent="1" source="sH4b_n3Dl-JkkLHRPlZF-56">
          <mxGeometry relative="1" as="geometry">
            <mxPoint x="410" y="940" as="targetPoint" />
          </mxGeometry>
        </mxCell>
        <mxCell id="sH4b_n3Dl-JkkLHRPlZF-56" value="Выход из приложения" style="rounded=0;whiteSpace=wrap;html=1;" vertex="1" parent="1">
          <mxGeometry x="354" y="820" width="120" height="60" as="geometry" />
        </mxCell>
        <mxCell id="sH4b_n3Dl-JkkLHRPlZF-57" value="Конец" style="rounded=1;whiteSpace=wrap;html=1;" vertex="1" parent="1">
          <mxGeometry x="361" y="940" width="106" height="40" as="geometry" />
        </mxCell>
        <mxCell id="sH4b_n3Dl-JkkLHRPlZF-64" value="Нет" style="text;html=1;align=center;verticalAlign=middle;whiteSpace=wrap;rounded=0;" vertex="1" parent="1">
          <mxGeometry x="430" y="780" width="60" height="30" as="geometry" />
        </mxCell>
        <mxCell id="sH4b_n3Dl-JkkLHRPlZF-68" style="edgeStyle=orthogonalEdgeStyle;rounded=0;orthogonalLoop=1;jettySize=auto;html=1;exitX=0.5;exitY=1;exitDx=0;exitDy=0;entryX=0.5;entryY=0;entryDx=0;entryDy=0;" edge="1" parent="1" source="sH4b_n3Dl-JkkLHRPlZF-66" target="sH4b_n3Dl-JkkLHRPlZF-3">
          <mxGeometry relative="1" as="geometry" />
        </mxCell>
        <mxCell id="sH4b_n3Dl-JkkLHRPlZF-66" value="Переход в главное меню" style="rounded=0;whiteSpace=wrap;html=1;" vertex="1" parent="1">
          <mxGeometry x="350.5" y="90" width="120" height="60" as="geometry" />
        </mxCell>
        <mxCell id="sH4b_n3Dl-JkkLHRPlZF-70" value="Да" style="text;html=1;align=center;verticalAlign=middle;whiteSpace=wrap;rounded=0;" vertex="1" parent="1">
          <mxGeometry x="274" y="710" width="60" height="30" as="geometry" />
        </mxCell>
      </root>
    </mxGraphModel>
  </diagram>
</mxfile>
